<svg id="a28eb612-b59e-4c40-b0b6-1ca4e93fd360" data-name="Слой 1" xmlns="http://www.w3.org/2000/svg" viewBox="0 0 592.1752 440.1162">
  <defs>
    <style>
      .f9ab69c7-5b39-4248-b997-f687ca7c2f68 {
        fill: #5f6c37;
      }
    </style>
  </defs>
  <g>
    <path class="f9ab69c7-5b39-4248-b997-f687ca7c2f68" d="M41.4988,73.3824A137.9906,137.9906,0,0,1,68.8952,62.303a198.58,198.58,0,0,1,27.3964-5.64,230.6933,230.6933,0,0,1,26.5906-2.0142q12.8893-.1989,24.9789-.2017h14.5037a48.954,48.954,0,0,1,30.4181,10.2736q13.4941,10.2739,24.1737,26.9932A210.0265,210.0265,0,0,1,235.8921,130.19a439.1072,439.1072,0,0,1,14.3027,44.9219q6.0429,23.1723,10.4752,45.7276,4.4281,22.5677,7.4529,41.0943,3.0224,18.5353,5.0366,31.224,2.0106,12.69,3.2227,15.9138L315.8654,63.7131a8.6474,8.6474,0,0,1,1.6117-4.8344,8.1,8.1,0,0,1,3.0217-3.0217q2.2095-1.4067,6.6477-1.41H380.73q11.2746,0,11.281,9.2662a17.3467,17.3467,0,0,1-1.8126,7.4535q-1.8136,3.8342-3.8276,9.4677a115.719,115.719,0,0,0-3.8275,13.9,99.1347,99.1347,0,0,0-1.8133,20.7488V275.6324q0,31.8307,7.4535,58.4182,7.45,26.5905,19.54,45.9293,12.0866,19.34,27.799,30.0155,15.7128,10.6707,32.634,10.6768c1.341,0,2.7511-.07,4.2308-.2017a42.7143,42.7143,0,0,0,4.23-.6036,41.9279,41.9279,0,0,0,17.1229-5.8418A107.2446,107.2446,0,0,0,507.8413,403.55q6.6476-5.8447,13.0955-12.2884a122.4959,122.4959,0,0,1,14.1005-12.0869q9.67-6.8547,19.7419-6.8486a23.3329,23.3329,0,0,1,12.8921,3.6253,21.8739,21.8739,0,0,1,8.2587,9.2668,22.802,22.802,0,0,1,1.8132,12.49q-.8119,6.8457-6.4454,13.2953-6.0446,7.2507-17.5266,11.6836a151.8022,151.8022,0,0,1-24.3741,7.05,189.8234,189.8234,0,0,1-26.188,3.4249q-13.2952.8028-22.9652.8052a213.8359,213.8359,0,0,1-33.44-2.82,152.0885,152.0885,0,0,1-34.6482-9.87,149.3448,149.3448,0,0,1-32.4324-18.7351A115.6086,115.6086,0,0,1,352.5286,372.93q-11.6907-17.9323-18.5329-42.3027-6.8556-24.3729-6.8492-56.6061V115.2832a118.0553,118.0553,0,0,0-.6043-12.4895q-.6048-5.6377-1.41-10.0726l-38.2748,235.286a9.0759,9.0759,0,0,1-4.0286,6.4467,14.1213,14.1213,0,0,1-7.6551,2.0149H230.05q-5.241,0-8.0577-5.0366-2.8235-5.033-4.835-15.9138-1.6148-8.46-4.23-26.7922-2.6247-18.3282-6.0435-40.6923-3.4273-22.3586-8.0576-46.13-4.6362-23.767-10.4752-43.3107-5.8449-19.537-12.4895-32.2308-6.6477-12.6913-14.7053-12.6911v165.99q.8028,14.91,5.036,23.1656a44.6973,44.6973,0,0,0,9.0651,12.6917,105.3568,105.3568,0,0,0,8.6619,7.2519,8.65,8.65,0,0,1,3.8275,7.2518,7.1594,7.1594,0,0,1-.8058,3.2234,7.8542,7.8542,0,0,1-2.4175,2.2152,9.2445,9.2445,0,0,1-4.8343,1.0081H129.3282q-8.0645,0-8.0577-6.85a8.5269,8.5269,0,0,1,4.0286-7.2519,68.2436,68.2436,0,0,0,8.8635-7.655,50.867,50.867,0,0,0,9.0651-13.2953q4.23-8.46,4.6334-24.1725V101.9879q0-11.2746-3.0217-18.13a26.6331,26.6331,0,0,0-7.6551-10.4752,25.2391,25.2391,0,0,0-9.6694-4.8343A39.2944,39.2944,0,0,0,118.45,67.339a59.5219,59.5219,0,0,0-23.1662,4.6334q-11.0859,4.6361-20.3462,22.36-3.2293,6.45-7.05,15.5112a143.8094,143.8094,0,0,1-8.8636,17.5254,59.0337,59.0337,0,0,1-11.6836,14.3027,23.2893,23.2893,0,0,1-15.9144,5.8418q-10.4809,0-17.727-8.6619a31.27,31.27,0,0,1-7.2519-20.7487A33.6277,33.6277,0,0,1,9.67,103.5989,51.6781,51.6781,0,0,1,17.9293,91.11,67.2727,67.2727,0,0,1,29.21,81.0375,114.7588,114.7588,0,0,1,41.4988,73.3824Z"/>
    <path class="f9ab69c7-5b39-4248-b997-f687ca7c2f68" d="M471.4784,262.3834a34.4014,34.4014,0,0,1,25.7853,10.8778,37.8759,37.8759,0,0,1,7.6551,40.4907,38.3483,38.3483,0,0,1-7.6551,11.6836,34.1633,34.1633,0,0,1-11.4832,7.8561,36.2137,36.2137,0,0,1-14.3021,2.82,36.4539,36.4539,0,0,1-36.6626-36.6626,36.3018,36.3018,0,0,1,10.6768-25.9863,39.47,39.47,0,0,1,11.6837-8.0577A34.1478,34.1478,0,0,1,471.4784,262.3834Z"/>
  </g>
</svg>
